<mxfile host="app.diagrams.net" modified="2024-04-09T02:25:55.958Z" agent="Mozilla/5.0 (X11; Linux x86_64; rv:124.0) Gecko/20100101 Firefox/124.0" etag="cP9-o-wR7LByAcjVIJYi" version="24.2.2" type="github">
  <diagram name="Page-1" id="sXRYX5HL8_ohyaCBxRMu">
    <mxGraphModel dx="880" dy="394" grid="1" gridSize="10" guides="1" tooltips="1" connect="1" arrows="1" fold="1" page="1" pageScale="1" pageWidth="850" pageHeight="1100" math="0" shadow="0">
      <root>
        <mxCell id="0" />
        <mxCell id="1" parent="0" />
        <mxCell id="GaO-K7H8E9QdrUe8bDi3-1" value="&lt;b&gt;User&lt;/b&gt;" style="whiteSpace=wrap;html=1;" parent="1" vertex="1">
          <mxGeometry x="280" y="51" width="120" height="60" as="geometry" />
        </mxCell>
        <mxCell id="GaO-K7H8E9QdrUe8bDi3-5" value="" style="endArrow=classic;html=1;rounded=0;" parent="1" edge="1">
          <mxGeometry width="50" height="50" relative="1" as="geometry">
            <mxPoint x="330" y="110" as="sourcePoint" />
            <mxPoint x="330" y="160" as="targetPoint" />
            <Array as="points">
              <mxPoint x="340" y="110" />
              <mxPoint x="330" y="110" />
              <mxPoint x="330" y="140" />
            </Array>
          </mxGeometry>
        </mxCell>
        <mxCell id="GaO-K7H8E9QdrUe8bDi3-6" value="&lt;b&gt;Whisper&lt;/b&gt;" style="whiteSpace=wrap;html=1;" parent="1" vertex="1">
          <mxGeometry x="280" y="160" width="120" height="60" as="geometry" />
        </mxCell>
        <mxCell id="GaO-K7H8E9QdrUe8bDi3-8" value="" style="endArrow=classic;html=1;rounded=0;exitX=0.425;exitY=0.983;exitDx=0;exitDy=0;exitPerimeter=0;" parent="1" source="GaO-K7H8E9QdrUe8bDi3-6" edge="1">
          <mxGeometry width="50" height="50" relative="1" as="geometry">
            <mxPoint x="400" y="260" as="sourcePoint" />
            <mxPoint x="330" y="270" as="targetPoint" />
            <Array as="points">
              <mxPoint x="330" y="260" />
            </Array>
          </mxGeometry>
        </mxCell>
        <mxCell id="GaO-K7H8E9QdrUe8bDi3-9" value="&lt;b&gt;Replicate&lt;/b&gt;" style="whiteSpace=wrap;html=1;" parent="1" vertex="1">
          <mxGeometry x="280" y="270" width="120" height="60" as="geometry" />
        </mxCell>
        <mxCell id="GaO-K7H8E9QdrUe8bDi3-10" value="" style="endArrow=classic;html=1;rounded=0;exitX=0.5;exitY=1;exitDx=0;exitDy=0;" parent="1" source="GaO-K7H8E9QdrUe8bDi3-9" edge="1">
          <mxGeometry width="50" height="50" relative="1" as="geometry">
            <mxPoint x="340" y="350" as="sourcePoint" />
            <mxPoint x="340" y="390" as="targetPoint" />
            <Array as="points" />
          </mxGeometry>
        </mxCell>
        <mxCell id="GaO-K7H8E9QdrUe8bDi3-11" value="&lt;b&gt;Savetrancript function&lt;/b&gt;" style="whiteSpace=wrap;html=1;" parent="1" vertex="1">
          <mxGeometry x="280" y="390" width="120" height="60" as="geometry" />
        </mxCell>
        <mxCell id="GaO-K7H8E9QdrUe8bDi3-21" style="edgeStyle=orthogonalEdgeStyle;rounded=0;orthogonalLoop=1;jettySize=auto;html=1;exitX=0.5;exitY=1;exitDx=0;exitDy=0;" parent="1" source="GaO-K7H8E9QdrUe8bDi3-12" edge="1">
          <mxGeometry relative="1" as="geometry">
            <mxPoint x="340" y="590" as="targetPoint" />
          </mxGeometry>
        </mxCell>
        <mxCell id="GaO-K7H8E9QdrUe8bDi3-12" value="&lt;b&gt;together ai prompt&lt;/b&gt;" style="whiteSpace=wrap;html=1;" parent="1" vertex="1">
          <mxGeometry x="280" y="520" width="120" height="60" as="geometry" />
        </mxCell>
        <mxCell id="GaO-K7H8E9QdrUe8bDi3-13" value="" style="endArrow=classic;html=1;rounded=0;exitX=0.5;exitY=1;exitDx=0;exitDy=0;" parent="1" source="GaO-K7H8E9QdrUe8bDi3-11" edge="1">
          <mxGeometry width="50" height="50" relative="1" as="geometry">
            <mxPoint x="340" y="490" as="sourcePoint" />
            <mxPoint x="340" y="520" as="targetPoint" />
            <Array as="points" />
          </mxGeometry>
        </mxCell>
        <mxCell id="GaO-K7H8E9QdrUe8bDi3-18" value="" style="endArrow=classic;html=1;rounded=0;exitX=0.5;exitY=1;exitDx=0;exitDy=0;" parent="1" source="GaO-K7H8E9QdrUe8bDi3-12" edge="1">
          <mxGeometry width="50" height="50" relative="1" as="geometry">
            <mxPoint x="350" y="580" as="sourcePoint" />
            <mxPoint x="340" y="650" as="targetPoint" />
            <Array as="points" />
          </mxGeometry>
        </mxCell>
        <mxCell id="GaO-K7H8E9QdrUe8bDi3-19" value="&lt;div&gt;&lt;b&gt;Schema.ts&lt;/b&gt;&lt;/div&gt;&lt;div&gt;&lt;b&gt;&lt;br&gt;&lt;/b&gt;&lt;/div&gt;" style="whiteSpace=wrap;html=1;" parent="1" vertex="1">
          <mxGeometry x="280" y="650" width="120" height="50" as="geometry" />
        </mxCell>
        <mxCell id="GaO-K7H8E9QdrUe8bDi3-22" value="" style="endArrow=classic;html=1;rounded=0;exitX=0.833;exitY=1;exitDx=0;exitDy=0;exitPerimeter=0;" parent="1" source="GaO-K7H8E9QdrUe8bDi3-19" edge="1">
          <mxGeometry width="50" height="50" relative="1" as="geometry">
            <mxPoint x="380" y="710" as="sourcePoint" />
            <mxPoint x="440" y="760" as="targetPoint" />
          </mxGeometry>
        </mxCell>
        <mxCell id="GaO-K7H8E9QdrUe8bDi3-24" value="" style="endArrow=classic;html=1;rounded=0;exitX=0.25;exitY=1;exitDx=0;exitDy=0;" parent="1" source="GaO-K7H8E9QdrUe8bDi3-19" edge="1">
          <mxGeometry width="50" height="50" relative="1" as="geometry">
            <mxPoint x="400" y="620" as="sourcePoint" />
            <mxPoint x="260" y="760" as="targetPoint" />
          </mxGeometry>
        </mxCell>
        <mxCell id="GaO-K7H8E9QdrUe8bDi3-25" value="&lt;b&gt;Notes.ts&lt;/b&gt;" style="whiteSpace=wrap;html=1;" parent="1" vertex="1">
          <mxGeometry x="200" y="760" width="120" height="50" as="geometry" />
        </mxCell>
        <mxCell id="GaO-K7H8E9QdrUe8bDi3-26" value="&lt;div&gt;&lt;b&gt;Together.ts&lt;/b&gt;&lt;/div&gt;&lt;div&gt;&lt;b&gt;&lt;br&gt;&lt;/b&gt;&lt;/div&gt;" style="whiteSpace=wrap;html=1;" parent="1" vertex="1">
          <mxGeometry x="390" y="760" width="120" height="50" as="geometry" />
        </mxCell>
        <mxCell id="GaO-K7H8E9QdrUe8bDi3-27" value="" style="endArrow=classic;html=1;rounded=0;exitX=0.417;exitY=1.06;exitDx=0;exitDy=0;exitPerimeter=0;" parent="1" source="GaO-K7H8E9QdrUe8bDi3-25" edge="1">
          <mxGeometry width="50" height="50" relative="1" as="geometry">
            <mxPoint x="400" y="940" as="sourcePoint" />
            <mxPoint x="340" y="900" as="targetPoint" />
          </mxGeometry>
        </mxCell>
        <mxCell id="GaO-K7H8E9QdrUe8bDi3-28" value="" style="endArrow=classic;html=1;rounded=0;exitX=0.675;exitY=1.04;exitDx=0;exitDy=0;exitPerimeter=0;" parent="1" source="GaO-K7H8E9QdrUe8bDi3-26" edge="1">
          <mxGeometry width="50" height="50" relative="1" as="geometry">
            <mxPoint x="440" y="840" as="sourcePoint" />
            <mxPoint x="400" y="900" as="targetPoint" />
          </mxGeometry>
        </mxCell>
        <mxCell id="GaO-K7H8E9QdrUe8bDi3-29" value="&lt;b&gt;Frontend data&lt;/b&gt;" style="whiteSpace=wrap;html=1;" parent="1" vertex="1">
          <mxGeometry x="305" y="900" width="120" height="50" as="geometry" />
        </mxCell>
        <mxCell id="HTHB-UWN5St5r07xQnPi-2" value="" style="endArrow=classic;html=1;rounded=0;entryX=0;entryY=0.5;entryDx=0;entryDy=0;" parent="1" target="HTHB-UWN5St5r07xQnPi-3" edge="1">
          <mxGeometry width="50" height="50" relative="1" as="geometry">
            <mxPoint x="340" y="250" as="sourcePoint" />
            <mxPoint x="450" y="249" as="targetPoint" />
          </mxGeometry>
        </mxCell>
        <mxCell id="HTHB-UWN5St5r07xQnPi-3" value="&lt;b&gt;Replicate_Api_Key&lt;br&gt;&lt;/b&gt;" style="rounded=1;whiteSpace=wrap;html=1;" parent="1" vertex="1">
          <mxGeometry x="470" y="240" width="120" height="20" as="geometry" />
        </mxCell>
        <mxCell id="HTHB-UWN5St5r07xQnPi-4" value="" style="endArrow=classic;html=1;rounded=0;entryX=0;entryY=0.5;entryDx=0;entryDy=0;" parent="1" edge="1">
          <mxGeometry width="50" height="50" relative="1" as="geometry">
            <mxPoint x="400" y="530" as="sourcePoint" />
            <mxPoint x="530" y="530" as="targetPoint" />
          </mxGeometry>
        </mxCell>
        <mxCell id="HTHB-UWN5St5r07xQnPi-5" value="&lt;b&gt;Together_API_Key&lt;/b&gt;" style="rounded=1;whiteSpace=wrap;html=1;" parent="1" vertex="1">
          <mxGeometry x="530" y="520" width="120" height="20" as="geometry" />
        </mxCell>
        <mxCell id="HTHB-UWN5St5r07xQnPi-6" value="" style="endArrow=classic;html=1;rounded=0;entryX=0;entryY=0.5;entryDx=0;entryDy=0;" parent="1" edge="1">
          <mxGeometry width="50" height="50" relative="1" as="geometry">
            <mxPoint x="400" y="570" as="sourcePoint" />
            <mxPoint x="530" y="570" as="targetPoint" />
          </mxGeometry>
        </mxCell>
        <mxCell id="HTHB-UWN5St5r07xQnPi-7" value="&lt;b&gt;Give prompt to togethe ai for what data i want &lt;/b&gt;" style="rounded=1;whiteSpace=wrap;html=1;" parent="1" vertex="1">
          <mxGeometry x="530" y="550" width="120" height="50" as="geometry" />
        </mxCell>
        <mxCell id="HTHB-UWN5St5r07xQnPi-9" value="" style="endArrow=classic;html=1;rounded=0;entryX=0;entryY=0.5;entryDx=0;entryDy=0;" parent="1" edge="1">
          <mxGeometry width="50" height="50" relative="1" as="geometry">
            <mxPoint x="400" y="674.5" as="sourcePoint" />
            <mxPoint x="530" y="674.5" as="targetPoint" />
          </mxGeometry>
        </mxCell>
        <mxCell id="HTHB-UWN5St5r07xQnPi-10" value="&lt;b&gt;schema for what data i wan to store in convax database.&lt;/b&gt;" style="rounded=1;whiteSpace=wrap;html=1;" parent="1" vertex="1">
          <mxGeometry x="530" y="650" width="120" height="50" as="geometry" />
        </mxCell>
        <mxCell id="HTHB-UWN5St5r07xQnPi-11" value="" style="endArrow=classic;html=1;rounded=0;entryX=0;entryY=0.5;entryDx=0;entryDy=0;" parent="1" edge="1">
          <mxGeometry width="50" height="50" relative="1" as="geometry">
            <mxPoint x="510" y="785" as="sourcePoint" />
            <mxPoint x="620" y="784.5" as="targetPoint" />
          </mxGeometry>
        </mxCell>
        <mxCell id="HTHB-UWN5St5r07xQnPi-12" value="&lt;b&gt;inside writen saveSummary and get indvisual data from&amp;nbsp; convax&amp;nbsp; &lt;/b&gt;" style="rounded=1;whiteSpace=wrap;html=1;" parent="1" vertex="1">
          <mxGeometry x="620" y="760" width="120" height="60" as="geometry" />
        </mxCell>
      </root>
    </mxGraphModel>
  </diagram>
</mxfile>
